{"asset":{"version":"2.0","generator":"gltfpack 1.2"},"extensionsUsed":["EXT_meshopt_compression"],"extensionsRequired":["EXT_meshopt_compression"],"buffers":[{"byteLength":111147928,"extensions":{"EXT_meshopt_compression":{"fallback":true}}},{"byteLength":3551332,"uri":"409d9b383e5da96f.bin"},{"byteLength":2765564,"uri":"c08fc1c9733cac0f.bin"},{"byteLength":18938635,"uri":"88d51b378f258409.bin"},{"byteLength":11720481,"uri":"6a8f974f84f58618.bin"},{"byteLength":5822406,"uri":"47e5890caa3ee8ad.bin"}],"bufferViews":[{"buffer":1,"byteOffset":0,"byteLength":3551332},{"buffer":2,"byteOffset":0,"byteLength":2765564},{"buffer":0,"byteOffset":0,"byteLength":30830208,"byteStride":12,"target":34962,"extensions":{"EXT_meshopt_compression":{"buffer":3,"byteOffset":0,"byteLength":18938635,"byteStride":12,"mode":"ATTRIBUTES","count":2569184}}},{"buffer":0,"byteOffset":30830208,"byteLength":20553472,"byteStride":8,"target":34962,"extensions":{"EXT_meshopt_compression":{"buffer":4,"byteOffset":0,"byteLength":11720481,"byteStride":8,"mode":"ATTRIBUTES","count":2569184}}},{"buffer":0,"byteOffset":51383680,"byteLength":59764248,"target":34963,"extensions":{"EXT_meshopt_compression":{"buffer":5,"byteOffset":0,"byteLength":5822406,"byteStride":4,"mode":"TRIANGLES","count":14941062}}}],"accessors":[{"bufferView":2,"byteOffset":0,"componentType":5126,"count":2569184,"type":"VEC3","min":[-0.198566318,-0.246360019,-0.500020683],"max":[0.198342294,0.246740445,0.500030756]},{"bufferView":3,"byteOffset":0,"componentType":5126,"count":2569184,"type":"VEC2"},{"bufferView":4,"byteOffset":0,"componentType":5125,"count":14941062,"type":"SCALAR"}],"images":[{"bufferView":0,"mimeType":"image/jpeg"},{"bufferView":1,"mimeType":"image/jpeg"}],"textures":[{"source":0},{"source":1}],"materials":[{"name":"pbr_material","pbrMetallicRoughness":{"baseColorTexture":{"index":0},"metallicRoughnessTexture":{"index":1}}}],"meshes":[{"primitives":[{"attributes":{"POSITION":0,"TEXCOORD_0":1},"indices":2,"material":0}]}],"nodes":[{"name":"world","children":[1]},{"name":"geometry_0","mesh":0}],"scenes":[{"nodes":[0]}],"scene":0}